<mxfile host="app.diagrams.net" modified="2023-06-26T02:46:38.004Z" agent="Mozilla/5.0 (Windows NT 10.0; Win64; x64) AppleWebKit/537.36 (KHTML, like Gecko) Chrome/114.0.0.0 Safari/537.36" version="21.5.0" etag="zcze_QeyPJPvOOMGHTku" type="github">
  <diagram name="Page-1" id="wMAPx3yTiH1eF6Wl2l4H">
    <mxGraphModel>
      <root>
        <mxCell id="0" />
        <mxCell id="1" parent="0" />
      </root>
    </mxGraphModel>
  </diagram>
</mxfile>
